<?xml version="1.0" standalone="no"?>
<!DOCTYPE svg PUBLIC "-//W3C//DTD SVG 20010904//EN"
 "http://www.w3.org/TR/2001/REC-SVG-20010904/DTD/svg10.dtd">
<svg version="1.0" xmlns="http://www.w3.org/2000/svg"
 width="500.000000pt" height="500.000000pt" viewBox="0 0 500.000000 500.000000"
 preserveAspectRatio="xMidYMid meet">
<metadata>
Created by potrace 1.14, written by Peter Selinger 2001-2017
</metadata>
<g transform="translate(0.000000,500.000000) scale(0.100000,-0.100000)"
fill="#000000" stroke="none">
<path d="M0 2500 l0 -2500 2500 0 2500 0 0 2500 0 2500 -2500 0 -2500 0 0
-2500z m2804 1264 c142 -153 305 -328 362 -389 l103 -110 1 393 0 392 105 0
105 0 0 -507 0 -508 72 -79 73 -79 -75 -69 c-41 -37 -77 -67 -81 -66 -4 2
-216 228 -470 503 -255 275 -468 500 -474 500 -7 0 -221 -200 -477 -445 -255
-245 -479 -458 -496 -475 l-33 -29 -72 72 -72 72 80 80 c229 228 1071 1029
1080 1026 6 -1 126 -128 269 -282z m-104 -669 l0 -95 -200 0 -200 0 0 95 0 95
200 0 200 0 0 -95z m0 -200 l0 -95 -200 0 -200 0 0 95 0 95 200 0 200 0 0 -95z
m-353 -277 c16 -13 17 -50 1 -66 -16 -16 -80 -15 -102 1 -25 18 -17 58 14 74
26 14 65 9 87 -9z m258 0 c6 -6 5 -12 -3 -17 -11 -7 -10 -9 3 -14 13 -5 14
-11 5 -27 -14 -26 -81 -28 -101 -3 -13 15 -11 16 24 10 46 -7 49 -1 5 11 -39
10 -43 32 -8 49 25 13 56 9 75 -9z m305 -5 c13 -13 10 -14 -30 -11 -39 3 -45
1 -45 -17 0 -17 6 -20 38 -17 20 2 37 -1 37 -6 0 -25 -90 -31 -110 -8 -45 56
57 110 110 59z m-1150 7 c0 -5 -7 -10 -15 -10 -10 0 -15 -11 -15 -35 0 -28 -4
-35 -20 -35 -16 0 -20 7 -20 35 0 28 -4 35 -20 35 -11 0 -20 5 -20 10 0 6 25
10 55 10 30 0 55 -4 55 -10z m60 -5 c0 -9 9 -15 25 -15 16 0 25 6 25 15 0 8 9
15 20 15 17 0 20 -7 20 -45 0 -37 -3 -45 -19 -45 -10 0 -21 9 -24 20 -3 12
-14 20 -26 20 -14 0 -21 -6 -21 -20 0 -13 -7 -20 -20 -20 -17 0 -20 7 -20 45
0 38 3 45 20 45 11 0 20 -7 20 -15z m220 5 c0 -5 -17 -11 -37 -11 -28 -1 -31
-3 -13 -6 40 -7 48 -23 12 -23 -18 0 -32 -4 -32 -10 0 -5 16 -10 35 -10 19 0
35 -4 35 -10 0 -5 -25 -10 -55 -10 l-55 0 0 45 0 45 55 0 c30 0 55 -4 55 -10z
m90 -5 c0 -9 9 -15 25 -15 16 0 25 6 25 15 0 8 9 15 20 15 17 0 20 -7 20 -45
0 -37 -3 -45 -19 -45 -10 0 -21 9 -24 20 -3 12 -14 20 -26 20 -14 0 -21 -6
-21 -20 0 -13 -7 -20 -20 -20 -17 0 -20 7 -20 45 0 38 3 45 20 45 11 0 20 -7
20 -15z m280 -14 c0 -16 6 -31 14 -34 19 -8 26 1 26 35 0 21 5 28 20 28 16 0
20 -7 20 -33 0 -42 -15 -57 -56 -57 -40 0 -64 22 -64 61 0 22 5 29 20 29 15 0
20 -7 20 -29z m330 19 c0 -5 -17 -11 -37 -12 -37 -1 -37 -1 -5 -5 40 -5 42
-23 2 -23 -16 0 -30 -4 -30 -10 0 -5 18 -10 40 -10 22 0 40 -4 40 -10 0 -6
-27 -10 -60 -10 l-60 0 0 45 0 45 55 0 c30 0 55 -4 55 -10z m311 -33 l25 -43
-73 0 c-40 0 -73 2 -73 3 0 2 11 21 25 43 34 54 62 53 96 -3z m159 28 c10 -12
10 -19 2 -27 -8 -8 -8 -17 -1 -30 8 -14 6 -18 -9 -18 -11 0 -25 7 -32 15 -7 8
-19 15 -26 15 -8 0 -14 -7 -14 -15 0 -8 -9 -15 -20 -15 -17 0 -20 7 -20 45 l0
45 54 0 c36 0 58 -5 66 -15z m130 5 c0 -5 -17 -11 -37 -12 -37 -1 -37 -1 -5
-5 38 -5 44 -23 7 -23 -14 0 -25 -4 -25 -10 0 -5 16 -10 35 -10 19 0 35 -4 35
-10 0 -5 -25 -10 -55 -10 l-55 0 0 45 0 45 50 0 c28 0 50 -4 50 -10z"/>
<path d="M2274 2595 c-8 -19 12 -36 33 -28 19 7 12 37 -10 41 -9 2 -20 -4 -23
-13z"/>
<path d="M2995 2590 c-3 -5 -1 -10 4 -10 6 0 11 5 11 10 0 6 -2 10 -4 10 -3 0
-8 -4 -11 -10z"/>
<path d="M3130 2600 c0 -5 11 -10 25 -10 14 0 25 5 25 10 0 6 -11 10 -25 10
-14 0 -25 -4 -25 -10z"/>
</g>
</svg>
